<svg width="60" height="60" viewBox="0 0 60 60" fill="none" xmlns="http://www.w3.org/2000/svg">
<g clip-path="url(#clip0)">
<path d="M0.0127396 41.6346C0.0127396 49.5229 6.40715 55.9174 14.2954 55.9174C22.1838 55.9174 28.5782 49.5229 28.5782 41.6346C28.5782 33.7462 22.1838 27.3519 14.2954 27.3519C12.6742 27.3519 11.1224 27.6345 9.66966 28.1326C12.8839 9.69821 27.2591 -2.18986 13.9333 7.59426C-0.843013 18.4437 -0.00308576 41.1981 0.0134482 41.6151C0.0134482 41.6216 0.0127396 41.6274 0.0127396 41.6346Z" fill="#737F8B" fill-opacity="0.21"/>
<path d="M31.4346 41.6346C31.4346 49.5229 37.829 55.9174 45.7174 55.9174C53.6057 55.9174 60.0001 49.5229 60.0001 41.6346C60.0001 33.7462 53.6056 27.3519 45.7172 27.3519C44.096 27.3519 42.5442 27.6345 41.0915 28.1326C44.3057 9.69821 58.681 -2.18986 45.3551 7.59426C30.5788 18.4437 31.4186 41.1981 31.4353 41.6151C31.4353 41.6216 31.4346 41.6274 31.4346 41.6346Z" fill="#737F8B" fill-opacity="0.21"/>
</g>
<defs>
<clipPath id="clip0">
<rect width="60" height="60" fill="white"/>
</clipPath>
</defs>
</svg>
