<svg width="30" height="30" viewBox="0 0 30 30" fill="none" xmlns="http://www.w3.org/2000/svg">
<g clip-path="url(#clip0)">
<path d="M15 30.0001C8.79749 30.0001 3.74999 24.9526 3.74999 18.7501C3.74999 11.0788 14.1162 0.625068 14.5575 0.182568C14.8012 -0.0611816 15.1975 -0.0611816 15.4412 0.182568C15.8837 0.625068 26.25 11.0788 26.25 18.7501C26.25 24.9526 21.2025 30.0001 15 30.0001ZM15 1.52507C13.0112 3.62007 4.99999 12.4526 4.99999 18.7501C4.99999 24.2638 9.48624 28.7501 15 28.7501C20.5137 28.7501 25 24.2638 25 18.7501C25 12.4488 16.9887 3.61882 15 1.52507Z" fill="#F3FBFD"/>
<path d="M15.625 25H14.375C13.3412 25 12.5 24.1587 12.5 23.125V21.25H10.625C9.59125 21.25 8.75 20.4087 8.75 19.375V18.125C8.75 17.0912 9.59125 16.25 10.625 16.25H12.5V14.375C12.5 13.3412 13.3412 12.5 14.375 12.5H15.625C16.6587 12.5 17.5 13.3412 17.5 14.375V16.25H19.375C20.4087 16.25 21.25 17.0912 21.25 18.125V19.375C21.25 20.4087 20.4087 21.25 19.375 21.25H17.5V23.125C17.5 24.1587 16.6587 25 15.625 25ZM10.625 17.5C10.28 17.5 10 17.78 10 18.125V19.375C10 19.72 10.28 20 10.625 20H13.125C13.47 20 13.75 20.28 13.75 20.625V23.125C13.75 23.47 14.03 23.75 14.375 23.75H15.625C15.97 23.75 16.25 23.47 16.25 23.125V20.625C16.25 20.28 16.53 20 16.875 20H19.375C19.72 20 20 19.72 20 19.375V18.125C20 17.78 19.72 17.5 19.375 17.5H16.875C16.53 17.5 16.25 17.22 16.25 16.875V14.375C16.25 14.03 15.97 13.75 15.625 13.75H14.375C14.03 13.75 13.75 14.03 13.75 14.375V16.875C13.75 17.22 13.47 17.5 13.125 17.5H10.625Z" fill="#F3FBFD"/>
</g>
<defs>
<clipPath id="clip0">
<rect width="30" height="30" fill="white"/>
</clipPath>
</defs>
</svg>
