<svg width="30" height="30" viewBox="0 0 30 30" fill="none" xmlns="http://www.w3.org/2000/svg">
<path d="M8.06498 8.32507C7.80193 8.32507 7.5867 8.5403 7.5867 8.80335V9.0664C7.59268 9.37728 7.34756 9.62838 7.03668 9.64034H7.0307C6.71384 9.64034 6.45677 9.38326 6.45079 9.0664V8.80335C6.45079 8.5403 6.23556 8.32507 5.97251 8.32507C5.70945 8.32507 5.49423 8.5403 5.49423 8.80335V9.0664C5.50021 9.47294 5.66163 9.86154 5.95457 10.1485C6.23556 10.4355 6.62416 10.5969 7.02472 10.5969C7.86769 10.5969 8.54326 9.91535 8.54326 9.0664V8.80335C8.54326 8.5403 8.32803 8.32507 8.06498 8.32507Z" fill="#F3FBFD"/>
<path d="M13.326 8.33105C13.063 8.33105 12.8477 8.54628 12.8477 8.80933V9.07239C12.8477 9.38327 12.5907 9.64034 12.2798 9.64034C11.9689 9.64034 11.7118 9.38327 11.7118 9.07239V8.80933C11.7118 8.54628 11.4966 8.33105 11.2336 8.33105C10.9705 8.33105 10.7553 8.54628 10.7553 8.80933V9.07239C10.7553 9.91535 11.4428 10.5969 12.2858 10.5969C13.1287 10.5969 13.8103 9.90937 13.8043 9.07239V8.80933C13.8043 8.54628 13.5891 8.33105 13.326 8.33105Z" fill="#F3FBFD"/>
<path d="M22.9932 15.828C20.7991 15.822 18.7306 16.8444 17.4093 18.5961C16.662 18.1178 15.7951 17.8607 14.9103 17.8607H12.3695V17.0237C13.4635 16.5335 14.4022 15.7623 15.0897 14.7818C15.7951 13.7834 16.2077 12.6116 16.2794 11.392C17.0506 11.2126 17.6006 10.5251 17.6066 9.73595C17.6066 9.28158 17.4273 8.84515 17.1044 8.52232C16.8832 8.30709 16.6142 8.15165 16.3153 8.07991V5.30589H17.2957C17.5588 5.30589 17.774 5.09067 17.774 4.82762C17.768 2.25687 15.6875 0.170383 13.1108 0.164404H8.8063C8.12475 0.158426 7.4731 0.427457 6.98884 0.911714C6.85731 1.04324 6.73774 1.18672 6.64209 1.34814C4.50777 1.44978 3.40175 3.05799 3.07892 4.57652C3.07892 4.5825 3.07892 4.5825 3.07892 4.58848C3.06098 4.70207 3.04902 4.81566 3.04902 4.92925V8.05599C2.70227 8.1098 2.38541 8.2772 2.1403 8.52829C1.47071 9.19191 1.47071 10.274 2.13432 10.9436C2.38541 11.1947 2.70825 11.3621 3.06098 11.4219C3.23436 13.9687 4.8605 16.1867 7.23396 17.1313V17.8607H4.69311C2.1104 17.8607 0 19.989 0 22.5658V28.4187C0.00597848 28.6877 0.215225 28.9089 0.490235 28.9209H19.2746C19.3344 28.9149 19.4002 28.9029 19.454 28.8731C20.5301 29.5068 21.7557 29.8356 22.9992 29.8356C26.8613 29.8356 30 26.6909 30 22.8348C30 18.9787 26.8553 15.828 22.9932 15.828ZM3.04305 10.4235C2.74412 10.3099 2.58868 10.0408 2.58868 9.73595C2.58868 9.53866 2.6664 9.34735 2.80988 9.20386C2.87565 9.13212 2.95337 9.07831 3.04305 9.04244V10.4235ZM16.4348 9.20984C16.5783 9.34734 16.662 9.53866 16.662 9.73595C16.662 9.999 16.4886 10.2322 16.3093 10.3637V9.10821C16.3153 9.13212 16.399 9.16799 16.4348 9.20984ZM7.35353 2.02371C7.43125 1.85631 7.53886 1.71283 7.66441 1.58728C7.96931 1.28836 8.37585 1.11498 8.8063 1.12096H13.1108C14.9761 1.109 16.5544 2.49601 16.7816 4.34934H8.8063C8.78836 4.34934 8.77641 4.34336 8.75847 4.34336C8.74053 4.34336 8.72858 4.33738 8.71064 4.33738C7.85572 4.28955 7.19211 3.58409 7.19211 2.72917C7.19211 2.48405 7.24591 2.24491 7.35353 2.02371ZM3.9996 4.92925C3.9996 4.87544 4.00558 4.82164 4.01156 4.77381C4.06536 4.51674 4.23874 3.87106 4.68115 3.30908C5.06975 2.80091 5.63173 2.46014 6.26544 2.35253C6.09207 3.51833 6.73177 4.65424 7.82583 5.10263C6.36708 6.65703 4.71702 6.85432 3.9996 6.84834V4.92925ZM5.66162 14.9791C4.59147 13.9149 3.99362 12.4681 3.9996 10.9615V7.81686C5.00399 7.81686 7.15026 7.51793 8.91391 5.30589H15.3587V10.9615C15.3468 13.329 13.882 15.4394 11.664 16.2764C10.4444 16.7308 9.10522 16.7547 7.87365 16.3422C7.04265 16.0672 6.28338 15.5949 5.66162 14.9791ZM9.20088 27.9643H0.950578V22.5658C0.956556 20.5869 2.50498 18.9548 4.47788 18.8471V20.1325C4.03547 20.2222 3.62296 20.4434 3.31208 20.7722C2.86967 21.2146 2.61857 21.8184 2.62455 22.4462V25.0827C2.62455 25.3458 2.81586 25.5729 3.07892 25.5729H3.8322C4.09526 25.5729 4.31048 25.3577 4.31048 25.0947C4.31048 24.8316 4.09526 24.6164 3.8322 24.6164H3.58111V22.4462C3.57513 22.0755 3.71861 21.7108 3.98167 21.4478C4.23276 21.1847 4.57951 21.0353 4.9442 21.0293H4.96214C5.74532 21.0353 6.37904 21.663 6.39099 22.4462V24.6164H5.90674C5.64368 24.6164 5.42846 24.8316 5.42846 25.0947C5.42846 25.3577 5.64368 25.5729 5.90674 25.5729H6.85134C7.12037 25.567 7.34157 25.3517 7.34755 25.0827V22.4462C7.34157 21.3163 6.54045 20.3477 5.43444 20.1265V18.8173H7.49701L9.20088 20.6586V27.9643ZM8.18454 18.1776V17.4243C8.67477 17.5379 9.17099 17.5976 9.67318 17.5976C10.2591 17.5976 10.845 17.5199 11.4129 17.3645V18.1596L9.71503 19.7858L8.18454 18.1776ZM10.1574 27.9643V20.6706L12.0765 18.8173H12.9673V21.3402C12.1124 21.5554 11.5086 22.3266 11.5026 23.2114C11.5086 24.2756 12.3814 25.1305 13.4396 25.1245C14.5038 25.1186 15.3587 24.2457 15.3527 23.1875C15.3468 22.6853 15.1495 22.2071 14.7967 21.8483C14.5516 21.6092 14.2527 21.4358 13.9179 21.3402V18.8173H14.9043C15.6038 18.8173 16.2914 19.0205 16.8832 19.3972C15.3169 22.219 15.8609 25.7523 18.2164 27.9643H10.1574ZM13.4217 22.2369C13.6788 22.2369 13.9299 22.3386 14.1152 22.5239C14.4918 22.9065 14.4918 23.5163 14.1152 23.899C13.7326 24.2816 13.1168 24.2816 12.7342 23.899C12.3515 23.5163 12.3515 22.9006 12.7342 22.5179C12.9135 22.3386 13.1646 22.2369 13.4217 22.2369ZM22.9932 28.8731C19.6572 28.8731 16.949 26.1708 16.949 22.8348C16.949 21.663 17.2898 20.5151 17.9295 19.5347C19.7529 16.7367 23.4954 15.9476 26.2874 17.771C29.0853 19.5945 29.8745 23.337 28.051 26.1289C26.945 27.8388 25.0379 28.8731 22.9932 28.8731Z" fill="#F3FBFD"/>
<path d="M25.3069 18.9906C25.1574 18.9727 25.0139 18.9667 24.8645 18.9787C24.4759 19.0086 24.0933 19.0743 23.7166 19.1819C23.4595 19.2477 23.3101 19.5108 23.3758 19.7678C23.4416 20.0249 23.7047 20.1744 23.9617 20.1086C24.2786 20.0189 24.6074 19.9651 24.9362 19.9352C25.7254 19.8754 26.4129 20.4673 26.4727 21.2505C26.4787 21.3402 26.4787 21.4239 26.4667 21.5135C26.3471 22.6255 25.9526 24.3533 24.7868 26.3741L23.8123 24.5805C23.6867 24.3414 23.4416 24.1979 23.1726 24.1979C22.8976 24.1979 22.6524 24.3533 22.5269 24.5984L21.654 26.3442C20.5002 24.3354 20.1056 22.6196 19.986 21.5135C19.9024 20.7244 20.4763 20.0189 21.2654 19.9352C21.3312 19.9293 21.391 19.9233 21.4568 19.9293C21.5464 20.0309 21.6301 20.1385 21.7138 20.2461C22.1622 20.844 22.9992 21.95 24.6074 21.7467C24.8705 21.7168 25.0558 21.4777 25.0199 21.2146C24.984 20.9516 24.7509 20.7662 24.4878 20.8021C23.4296 20.9336 22.8976 20.2342 22.4791 19.6722C22.21 19.3135 21.9769 19.0086 21.6062 18.9787C20.291 18.877 19.1371 19.8575 19.0355 21.1788C19.0235 21.3282 19.0235 21.4717 19.0415 21.6212C19.179 22.8886 19.6393 24.8914 21.0562 27.211C21.1937 27.4382 21.4448 27.5697 21.7078 27.5578C21.9709 27.5458 22.2041 27.3904 22.3177 27.1572L23.1786 25.4295L24.1351 27.1871C24.2547 27.4143 24.4878 27.5578 24.7509 27.5697C24.7569 27.5697 24.7628 27.5697 24.7748 27.5697C25.0259 27.5697 25.265 27.4382 25.3966 27.223C26.8194 24.8974 27.2798 22.8946 27.4233 21.6212C27.5667 20.3119 26.6162 19.1341 25.3069 18.9906Z" fill="#F3FBFD"/>
</svg>
