<svg width="30" height="30" viewBox="0 0 30 30" fill="none" xmlns="http://www.w3.org/2000/svg">
<g clip-path="url(#clip0)">
<path d="M19.3443 24.4333C18.7139 23.6112 17.9787 22.9176 17.215 22.2796C19.2606 20.5673 21.0757 18.4678 21.0757 15C21.0757 13.0696 20.5093 11.3926 19.3443 9.87305C18.714 9.05103 17.9787 8.35734 17.2148 7.7192C19.2688 5.99742 21.0756 3.88559 21.0756 0.439453C21.0756 0.196758 20.8789 0 20.6362 0C20.3935 0 20.1967 0.196758 20.1967 0.439453C20.1967 3.74836 18.3441 5.65441 16.5185 7.15547C16.2937 6.97799 16.0684 6.80332 15.8445 6.62977C13.6368 4.91895 11.8695 3.54943 11.6958 0.878906H18.3059C18.271 1.47123 18.1508 2.11787 17.8179 2.81818H14.0606C13.8179 2.81818 13.6211 3.01494 13.6211 3.25764C13.6211 3.50033 13.8179 3.69709 14.0606 3.69709H17.299C16.9976 4.12295 16.6099 4.56621 16.1109 5.02711C15.9326 5.19182 15.9216 5.46984 16.0862 5.64814C16.2509 5.82639 16.5288 5.8374 16.7072 5.67281C17.9384 4.53568 19.197 3.02473 19.197 0.439512C19.197 0.196816 19.0002 5.85938e-05 18.7575 5.85938e-05H11.2424C10.9997 5.85938e-05 10.8029 0.196816 10.8029 0.439512C10.8029 3.8349 12.9904 5.52996 15.3064 7.32475C16.4894 8.24162 17.7127 9.18973 18.6468 10.4079C19.6898 11.7681 20.1968 13.2703 20.1968 15.0001C20.1968 16.5153 19.8136 17.8424 19.0253 19.0571C18.3181 20.1469 17.3767 21.0096 16.5186 21.7161C16.2937 21.5386 16.0685 21.3639 15.8445 21.1904C15.7995 21.1555 15.7551 21.1211 15.7105 21.0865C17.6543 19.518 19.197 17.8957 19.197 15.0001C19.197 11.6047 17.0095 9.90961 14.6935 8.11482C13.5105 7.19795 12.2872 6.24984 11.3531 5.03168C10.31 3.67137 9.80309 2.1692 9.80309 0.439453C9.80309 0.196758 9.60633 0 9.36363 0C9.12094 0 8.92418 0.196758 8.92418 0.439453C8.92418 2.36988 9.49055 4.04689 10.6556 5.56641C11.2859 6.38842 12.0212 7.08217 12.7851 7.72031C10.7354 9.43723 8.92418 11.5427 8.92418 15C8.92418 16.9305 9.4906 18.6076 10.6557 20.1272C11.2861 20.9493 12.0213 21.6429 12.785 22.2809C10.7348 23.9982 8.92418 26.1043 8.92418 29.5605C8.92418 29.8032 9.12094 30 9.36363 30C9.60633 30 9.80309 29.8032 9.80309 29.5605C9.80309 26.2398 11.6613 24.3407 13.4812 22.8445C13.7061 23.022 13.9314 23.1967 14.1554 23.3702C16.3631 25.0811 18.1304 26.4506 18.304 29.1211H11.694C11.7289 28.5288 11.8491 27.8821 12.1819 27.1818H15.9393C16.182 27.1818 16.3788 26.9851 16.3788 26.7424C16.3788 26.4997 16.182 26.3029 15.9393 26.3029H12.7008C13.0023 25.8771 13.39 25.4338 13.8889 24.9729C14.0672 24.8082 14.0783 24.5302 13.9136 24.3519C13.7489 24.1737 13.4709 24.1626 13.2926 24.3273C12.0615 25.4644 10.8029 26.9753 10.8029 29.5605C10.8029 29.8032 10.9997 30 11.2424 30H18.7575C19.0002 30 19.197 29.8032 19.197 29.5605C19.197 26.1652 17.0095 24.4701 14.6937 22.6755C13.5107 21.7588 12.2875 20.8108 11.3532 19.5924C10.3101 18.232 9.80309 16.7299 9.80309 15C9.80309 11.678 11.6621 9.77965 13.4813 8.28399C13.7061 8.46146 13.9314 8.63613 14.1554 8.80969C14.2004 8.84455 14.2448 8.87906 14.2895 8.91363C12.3444 10.4838 10.803 12.1098 10.803 15C10.803 18.3954 12.9904 20.0904 15.3062 21.885C16.4892 22.8018 17.7125 23.7497 18.6468 24.9681C19.6898 26.3285 20.1969 27.8307 20.1969 29.5605C20.1969 29.8032 20.3937 29.9999 20.6364 29.9999C20.8791 29.9999 21.0758 29.8032 21.0758 29.5605C21.0758 27.63 20.5094 25.9529 19.3443 24.4333ZM15.0002 9.47021C15.9221 10.2041 16.7259 10.9136 17.3119 11.7424H12.6906C13.2781 10.9113 14.0832 10.2008 15.0002 9.47021ZM12.1785 12.6213H17.8244C18.0883 13.192 18.2551 13.8278 18.3028 14.5605H11.6968C11.7449 13.8284 11.9135 13.1928 12.1785 12.6213ZM11.6971 15.4395H18.3032C18.2552 16.1721 18.087 16.8076 17.8224 17.3787H12.1755C11.9116 16.8079 11.7449 16.1722 11.6971 15.4395ZM14.9996 20.5298C14.0777 19.796 13.2739 19.0864 12.6879 18.2576H17.3105C16.7228 19.0892 15.917 19.7991 14.9996 20.5298Z" fill="#F3FBFD"/>
</g>
<defs>
<clipPath id="clip0">
<rect width="30" height="30" fill="white"/>
</clipPath>
</defs>
</svg>
