<svg width="512" height="352" viewBox="0 0 512 352" fill="none" xmlns="http://www.w3.org/2000/svg">
<path d="M416 352V320H320C288.641 320 259.84 308.48 237.439 289.92C209.6 266.24 192 231.039 192 192V128C192 92.799 163.199 64 128 64H0V0H128C174.721 0 215.359 24.959 237.439 62.08C249.279 81.279 256 104 256 128V192C256 227.199 284.801 256 320 256H416V224L512 288L416 352Z" fill="#00B8DD"/>
<path d="M256 128V224C256 248 249.279 270.719 237.439 289.92C209.6 266.24 192 231.039 192 192V160C192 120.959 209.6 85.76 237.439 62.08C249.279 81.279 256 104 256 128Z" fill="#00B8DD"/>
<path d="M192 192C192 231.039 209.6 266.24 237.439 289.92C215.359 327.039 174.721 352 128 352H0V288H128C163.199 288 192 259.199 192 224V192Z" fill="#2ECCEC" fill-opacity="0.74"/>
<path d="M416 128V96H320C284.801 96 256 124.799 256 160V128C256 104 249.279 81.279 237.439 62.08C259.84 43.52 288.641 32 320 32H416V0L512 64L416 128Z" fill="#2ECCEC" fill-opacity="0.74"/>
</svg>
