<svg width="30" height="30" viewBox="0 0 30 30" fill="none" xmlns="http://www.w3.org/2000/svg">
<path d="M25.1888 0.0852051C22.5358 0.0852051 20.3775 2.24353 20.3775 4.89644C20.3775 7.04659 21.7954 8.87149 23.7454 9.48588V11.6322H24.7076V25.5848C24.7076 27.4419 23.1969 28.9526 21.3398 28.9526H15.0852C14.1701 28.9526 13.3401 28.5846 12.7325 27.9904H22.4723L20.9385 23.0064C20.5772 21.8315 19.7299 20.8702 18.6277 20.3559C19.7232 18.849 20.3775 17.0015 20.3775 15V13.5567C20.3775 12.7609 19.7299 12.1133 18.9342 12.1133V7.78319C18.9342 3.53871 15.4806 0.0852051 11.2362 0.0852051C6.99169 0.0852051 3.53819 3.53871 3.53819 7.78319V12.1133C2.74241 12.1133 2.09481 12.7609 2.09481 13.5567V15C2.09481 17.0015 2.74914 18.849 3.84418 20.3564C2.74241 20.8702 1.89515 21.8315 1.53334 23.0069L0 27.9904H11.4873C12.2653 29.1499 13.5874 29.9149 15.0852 29.9149H21.3398C23.7271 29.9149 25.6699 27.9721 25.6699 25.5848V11.6322H26.6321V9.48588C28.5821 8.87149 30 7.04659 30 4.89644C30 2.24353 27.8417 0.0852051 25.1888 0.0852051ZM18.8856 13.0756H18.9342C19.1992 13.0756 19.4153 13.2916 19.4153 13.5567V15C19.4153 16.8885 18.7658 18.6248 17.6866 20.011L14.604 18.9833V17.7554C15.5523 17.0708 16.2832 16.1076 16.6782 14.9851C17.7713 14.9163 18.6715 14.1239 18.8856 13.0756ZM11.2362 17.8868C8.58325 17.8868 6.42493 15.7285 6.42493 13.0756V8.74543H8.53754C10.7002 8.74543 12.8066 7.98285 14.4679 6.59818L14.5237 6.55199C15.5095 7.94773 16.0474 9.63118 16.0474 11.3449V13.0756C16.0474 15.7285 13.8891 17.8868 11.2362 17.8868ZM13.6418 18.3174V19.169C13.3964 19.4663 12.5939 20.2924 11.2362 20.2924C9.87507 20.2924 9.07592 19.4687 8.83055 19.169V18.3169C9.56378 18.6551 10.3769 18.849 11.2362 18.849C12.0955 18.849 12.9086 18.6551 13.6418 18.3174ZM11.2362 21.2547C12.846 21.2547 13.8578 20.3694 14.287 19.8921L17 20.7966C15.5201 22.2679 13.483 23.1792 11.2362 23.1792C8.98932 23.1792 6.95224 22.2679 5.4723 20.7966L8.18536 19.8921C8.61452 20.3694 9.62633 21.2547 11.2362 21.2547ZM17.0048 11.2381C17.5663 11.4364 17.9719 11.9666 17.9719 12.5944C17.9719 13.2492 17.5312 13.7972 16.9327 13.9733C16.9789 13.6798 17.0097 13.3815 17.0097 13.0756V11.3449C17.0097 11.3093 17.0053 11.2737 17.0048 11.2381ZM4.50043 7.78319C4.50043 4.06891 7.52189 1.04745 11.2362 1.04745C14.9504 1.04745 17.9719 4.06891 17.9719 7.78319V10.6824C17.6717 10.4549 17.32 10.2961 16.9336 10.2302C16.7258 8.53085 16.0551 6.90273 14.9798 5.55847L14.6733 5.17501L13.852 5.85917C12.363 7.09999 10.4755 7.78319 8.53754 7.78319H5.46268V10.2374C5.10521 10.3105 4.78141 10.4693 4.50043 10.682V7.78319ZM5.46268 11.2396V13.0756C5.46268 13.3815 5.49347 13.6798 5.53966 13.9733C4.94114 13.7972 4.50043 13.2492 4.50043 12.5944C4.50043 11.968 4.9041 11.4388 5.46268 11.2396ZM3.05706 15V13.5567C3.05706 13.2916 3.27309 13.0756 3.53819 13.0756H3.58678C3.8004 14.1239 4.70058 14.9158 5.79418 14.9851C6.18918 16.1081 6.92 17.0713 7.8683 17.7554V18.9833L4.78574 20.011C3.70658 18.6248 3.05706 16.8885 3.05706 15ZM5.52667 27.0281L5.93996 23.7199L4.98541 23.6006L4.55672 27.0281H1.30288L2.45325 23.2893C2.75876 22.2963 3.51269 21.5034 4.48023 21.1358C5.84614 22.6384 7.70039 23.6814 9.79328 24.0158V26.0659H10.7839C10.821 26.3998 10.8994 26.7212 11.0081 27.0281H5.52667ZM11.7173 25.1036H10.755V24.1169C10.9153 24.1255 11.0735 24.1414 11.2362 24.1414C11.3988 24.1414 11.5571 24.1255 11.7173 24.1169V25.1036ZM12.0469 27.0281C11.904 26.7289 11.8049 26.4056 11.7558 26.0659H12.6795V24.0158C14.7724 23.6814 16.6267 22.6384 17.9926 21.1358C18.9596 21.5034 19.7136 22.2963 20.0191 23.2893L21.1695 27.0281H17.9156L17.4869 23.6006L16.5324 23.7199L16.9457 27.0281H12.0469ZM25.6699 10.6699H24.7076V9.70768H25.6699V10.6699ZM25.1888 8.74543C23.0665 8.74543 21.3398 7.01868 21.3398 4.89644C21.3398 2.77421 23.0665 1.04745 25.1888 1.04745C27.311 1.04745 29.0378 2.77421 29.0378 4.89644C29.0378 7.01868 27.311 8.74543 25.1888 8.74543Z" fill="#F3FBFD"/>
<path d="M26.6321 3.45302V2.00964H23.7454V3.45302H22.302V6.33976H23.7454V7.78313H26.6321V6.33976H28.0755V3.45302H26.6321ZM27.1133 5.37751H25.6699V6.82088H24.7076V5.37751H23.2643V4.41526H24.7076V2.97189H25.6699V4.41526H27.1133V5.37751Z" fill="#F3FBFD"/>
</svg>
