<svg width="30" height="30" viewBox="0 0 30 30" fill="none" xmlns="http://www.w3.org/2000/svg">
<path d="M25.98 8.86145C25.903 8.59597 25.626 8.44245 25.3605 8.52044C25.095 8.59696 24.9425 8.87446 25.0195 9.13942C25.31 10.1399 25.359 10.9554 25.178 11.7819C25.1195 12.0519 25.2899 12.3184 25.5599 12.377C25.5954 12.3845 25.6314 12.3884 25.6669 12.3884C25.8969 12.3884 26.1039 12.229 26.1549 11.9965C26.3705 11.011 26.3145 10.015 25.98 8.86145Z" fill="#F3FBFD"/>
<path d="M24.947 6.77605C24.29 5.46256 21.9665 4.95807 20.776 5.55256C20.529 5.67607 20.429 5.97654 20.5525 6.22357C20.676 6.47055 20.9755 6.5701 21.2235 6.44705C22.027 6.04656 23.6926 6.50353 24.0526 7.22353C24.1406 7.39902 24.317 7.50004 24.5006 7.50004C24.5756 7.50004 24.6521 7.48305 24.7236 7.44701C24.9705 7.32355 25.0705 7.02303 24.947 6.77605Z" fill="#F3FBFD"/>
<path d="M26.6515 5.40051C24.8375 3.47553 22.8515 2.5 20.748 2.5C18.3965 2.5 16.269 3.91598 15 6.26148C13.7325 3.91598 11.611 2.5 9.26847 2.5C7.17597 2.5 5.24595 3.44752 3.36849 5.39652C1.21048 7.63603 0.293488 12.7911 4.184 16.6445C6.01898 18.4611 14.555 27.2596 14.641 27.348C14.7355 27.4455 14.8645 27.5 15 27.5C15.135 27.5 15.2645 27.4455 15.359 27.3485C15.445 27.2595 23.9975 18.4615 25.8325 16.6445C29.6855 12.828 28.784 7.66205 26.6515 5.40051ZM25.129 15.934C23.504 17.543 16.6525 24.5845 15.0005 26.2825C13.3515 24.584 6.51298 17.543 4.888 15.934C1.45452 12.534 2.218 8.03254 4.08902 6.09004C5.76802 4.34705 7.46202 3.50002 9.26853 3.50002C11.508 3.50002 13.526 5.08199 14.5351 7.62853C14.611 7.81955 14.795 7.94453 15.0001 7.94453C15.2051 7.94453 15.3895 7.81955 15.4651 7.62853C16.474 5.08205 18.4986 3.50002 20.748 3.50002C22.5905 3.50002 24.2835 4.34553 25.924 6.08652C27.7755 8.05053 28.5295 12.5661 25.129 15.934Z" fill="#F3FBFD"/>
<path d="M29.5 15.5H21.2675L20.416 14.2231C20.2305 13.9446 19.7695 13.9446 19.584 14.2231L18.12 16.4196L15.967 10.821C15.8875 10.6156 15.6795 10.483 15.4629 10.5021C15.2429 10.5181 15.0599 10.6766 15.012 10.8921L13.3335 18.4456L10.9545 13.2905C10.882 13.1336 10.733 13.0245 10.5609 13.004C10.3874 12.9785 10.2179 13.0525 10.1099 13.1875L8.25996 15.5H0.49998C0.224004 15.5 0 15.7235 0 16C0 16.2765 0.224004 16.5 0.49998 16.5H8.49996C8.65195 16.5 8.79545 16.431 8.89049 16.3125L10.385 14.444L13.046 20.2095C13.1285 20.3875 13.3069 20.5 13.4999 20.5C13.5175 20.5 13.5354 20.499 13.5529 20.497C13.7664 20.474 13.9414 20.318 13.9879 20.1086L15.6284 12.727L17.5334 17.6796C17.6004 17.8541 17.7594 17.9766 17.9449 17.9971C18.1319 18.0171 18.3124 17.9336 18.4159 17.7776L19.9999 15.4016L20.5839 16.2776C20.6769 16.4166 20.8329 16.5001 20.9999 16.5001H29.5C29.7759 16.5001 29.9999 16.2766 29.9999 16.0001C29.9999 15.7236 29.776 15.5 29.5 15.5Z" fill="#F3FBFD"/>
</svg>
