<svg width="123" height="30" viewBox="0 0 123 30" fill="none" xmlns="http://www.w3.org/2000/svg">
<g clip-path="url(#clip0)">
<path d="M25.602 4.39574C22.9137 1.70686 19.3847 0.165319 15.6078 0.01526C15.5071 0.0110999 15.4056 0.00817018 15.3043 0.00635377C15.2628 0.00518189 15.2212 0.00459595 15.1803 0.00401001C15.1199 0.00342407 15.0588 0.00283813 14.9977 0.00283813C6.46561 0.00283813 -0.306316 7.09656 0.00997363 15.5229C0.263626 23.4763 6.81049 29.9972 14.9977 29.9972C19.0034 29.9972 22.7696 28.4372 25.602 25.6043C31.4701 19.7362 31.4567 10.2492 25.602 4.39574ZM15.022 23.5351H14.9977C10.2683 23.5351 6.46268 19.686 6.46268 15.0001V14.9817C6.47276 10.284 10.2976 6.46504 14.9977 6.46504C19.7037 6.46504 23.5327 10.2941 23.5327 15.0001C23.5327 19.6977 19.7167 23.522 15.022 23.5351Z" fill="#00B8DD"/>
<path d="M29.7347 15.6291L27.3932 17.9705C27.0482 18.3155 26.4837 18.3191 26.1351 17.9705L23.7936 15.6291C23.6271 15.4618 23.5334 15.236 23.5334 15C23.5334 10.294 19.7043 6.46499 14.9984 6.46499C15.2343 6.46499 15.4602 6.3713 15.6274 6.20472L17.9688 3.86331C18.3163 3.51585 18.3163 2.95259 17.9688 2.60512L15.6274 0.263713C15.4602 0.0971309 15.2343 0.00285339 14.9984 0.00285339C15.1932 0.00285339 15.4167 0.00800965 15.6097 0.0159198C15.6091 0.0153339 15.6091 0.0153339 15.6085 0.0153339C19.3853 0.165334 22.9144 1.70694 25.6027 4.39581C28.3497 7.14216 29.8088 10.6849 29.9813 14.2773C29.9802 14.2779 29.979 14.2779 29.9778 14.2785C30.0093 14.9479 30.0555 15.3083 29.7347 15.6291Z" fill="#33FF8E" fill-opacity="0.75"/>
<path d="M12.0279 26.1367C11.6804 26.4842 11.6804 27.0475 12.0279 27.3949L14.3693 29.7363C14.53 29.8964 14.744 29.9895 14.9699 29.9966C14.2849 29.9966 13.5482 29.9452 12.8028 29.8365C12.8028 29.8371 12.8028 29.8371 12.8028 29.8377C8.24687 29.1712 4.35975 26.4593 2.10131 22.6628C2.10131 22.6622 2.1019 22.6622 2.1019 22.6616C1.89494 22.3136 1.70229 21.9561 1.52322 21.5903H1.52147C-0.146115 18.1854 0.0224012 15.1422 0.00119019 14.9686C0.00177612 14.968 0.002948 14.968 0.00353394 14.968C0.0112683 14.7439 0.103144 14.5298 0.26205 14.3709L2.60346 12.0295C2.95151 11.6814 3.51419 11.682 3.86165 12.0295L6.20306 14.3709C6.4723 14.6391 6.4621 14.9939 6.46333 15C6.46333 19.6715 10.254 23.5344 14.9972 23.5344C15.0037 23.5344 15.0108 23.5344 15.0179 23.535C14.7635 23.5454 14.5532 23.6118 14.3693 23.7953L12.0279 26.1367Z" fill="#33FF8E" fill-opacity="0.75"/>
</g>
<path d="M34.11 20V9.35H37.98C39.14 9.35 40.11 9.59 40.89 10.07C41.67 10.54 42.255 11.18 42.645 11.99C43.035 12.79 43.23 13.68 43.23 14.66C43.23 15.74 43.015 16.68 42.585 17.48C42.155 18.28 41.545 18.9 40.755 19.34C39.965 19.78 39.04 20 37.98 20H34.11ZM41.145 14.66C41.145 13.97 41.02 13.365 40.77 12.845C40.52 12.315 40.16 11.905 39.69 11.615C39.22 11.315 38.65 11.165 37.98 11.165H36.18V18.185H37.98C38.66 18.185 39.235 18.035 39.705 17.735C40.175 17.425 40.53 17.005 40.77 16.475C41.02 15.935 41.145 15.33 41.145 14.66ZM48.2823 20.15C47.4223 20.15 46.6823 19.965 46.0623 19.595C45.4523 19.215 44.9823 18.715 44.6523 18.095C44.3223 17.475 44.1573 16.805 44.1573 16.085C44.1573 15.355 44.3223 14.68 44.6523 14.06C44.9923 13.44 45.4673 12.945 46.0773 12.575C46.6973 12.195 47.4323 12.005 48.2823 12.005C49.1323 12.005 49.8623 12.195 50.4723 12.575C51.0923 12.945 51.5673 13.44 51.8973 14.06C52.2273 14.68 52.3923 15.355 52.3923 16.085C52.3923 16.805 52.2273 17.475 51.8973 18.095C51.5673 18.715 51.0923 19.215 50.4723 19.595C49.8623 19.965 49.1323 20.15 48.2823 20.15ZM46.2273 16.085C46.2273 16.545 46.3173 16.955 46.4973 17.315C46.6773 17.665 46.9223 17.94 47.2323 18.14C47.5423 18.34 47.8923 18.44 48.2823 18.44C48.6623 18.44 49.0073 18.34 49.3173 18.14C49.6273 17.93 49.8723 17.65 50.0523 17.3C50.2423 16.94 50.3373 16.53 50.3373 16.07C50.3373 15.62 50.2423 15.22 50.0523 14.87C49.8723 14.51 49.6273 14.23 49.3173 14.03C49.0073 13.82 48.6623 13.715 48.2823 13.715C47.8923 13.715 47.5423 13.82 47.2323 14.03C46.9223 14.23 46.6773 14.51 46.4973 14.87C46.3173 15.22 46.2273 15.625 46.2273 16.085ZM57.409 20.15C56.559 20.15 55.824 19.96 55.204 19.58C54.584 19.2 54.104 18.7 53.764 18.08C53.424 17.46 53.254 16.79 53.254 16.07C53.254 15.34 53.419 14.665 53.749 14.045C54.089 13.425 54.569 12.93 55.189 12.56C55.809 12.19 56.544 12.005 57.394 12.005C58.254 12.005 58.984 12.19 59.584 12.56C60.194 12.93 60.649 13.415 60.949 14.015L58.984 14.615C58.634 14.015 58.099 13.715 57.379 13.715C56.989 13.715 56.639 13.815 56.329 14.015C56.019 14.205 55.774 14.48 55.594 14.84C55.414 15.19 55.324 15.6 55.324 16.07C55.324 16.53 55.414 16.94 55.594 17.3C55.784 17.65 56.034 17.93 56.344 18.14C56.654 18.34 56.999 18.44 57.379 18.44C57.739 18.44 58.069 18.355 58.369 18.185C58.679 18.005 58.894 17.78 59.014 17.51L60.979 18.11C60.709 18.7 60.259 19.19 59.629 19.58C59.009 19.96 58.269 20.15 57.409 20.15ZM66.9258 19.595C66.6558 19.715 66.3208 19.835 65.9208 19.955C65.5308 20.075 65.1258 20.135 64.7058 20.135C64.3358 20.135 63.9958 20.07 63.6858 19.94C63.3758 19.81 63.1258 19.605 62.9358 19.325C62.7558 19.035 62.6658 18.66 62.6658 18.2V13.685H61.6308V12.14H62.6658V9.59H64.6758V12.14H66.3258V13.685H64.6758V17.525C64.6758 17.795 64.7458 17.99 64.8858 18.11C65.0358 18.23 65.2158 18.29 65.4258 18.29C65.6358 18.29 65.8408 18.255 66.0408 18.185C66.2408 18.115 66.4008 18.055 66.5208 18.005L66.9258 19.595ZM71.5001 20.15C70.6401 20.15 69.9001 19.965 69.2801 19.595C68.6701 19.215 68.2001 18.715 67.8701 18.095C67.5401 17.475 67.3751 16.805 67.3751 16.085C67.3751 15.355 67.5401 14.68 67.8701 14.06C68.2101 13.44 68.6851 12.945 69.2951 12.575C69.9151 12.195 70.6501 12.005 71.5001 12.005C72.3501 12.005 73.0801 12.195 73.6901 12.575C74.3101 12.945 74.7851 13.44 75.1151 14.06C75.4451 14.68 75.6101 15.355 75.6101 16.085C75.6101 16.805 75.4451 17.475 75.1151 18.095C74.7851 18.715 74.3101 19.215 73.6901 19.595C73.0801 19.965 72.3501 20.15 71.5001 20.15ZM69.4451 16.085C69.4451 16.545 69.5351 16.955 69.7151 17.315C69.8951 17.665 70.1401 17.94 70.4501 18.14C70.7601 18.34 71.1101 18.44 71.5001 18.44C71.8801 18.44 72.2251 18.34 72.5351 18.14C72.8451 17.93 73.0901 17.65 73.2701 17.3C73.4601 16.94 73.5551 16.53 73.5551 16.07C73.5551 15.62 73.4601 15.22 73.2701 14.87C73.0901 14.51 72.8451 14.23 72.5351 14.03C72.2251 13.82 71.8801 13.715 71.5001 13.715C71.1101 13.715 70.7601 13.82 70.4501 14.03C70.1401 14.23 69.8951 14.51 69.7151 14.87C69.5351 15.22 69.4451 15.625 69.4451 16.085ZM81.6468 13.88C81.0368 13.88 80.4918 14 80.0118 14.24C79.5318 14.47 79.1868 14.805 78.9768 15.245V20H76.9668V12.14H78.8118V13.82C79.0818 13.28 79.4318 12.855 79.8618 12.545C80.3018 12.235 80.7618 12.065 81.2418 12.035C81.4518 12.035 81.5868 12.04 81.6468 12.05V13.88ZM82.3175 14.6C82.3175 13.95 82.4325 13.31 82.6625 12.68C82.9025 12.05 83.2475 11.48 83.6975 10.97C84.1475 10.46 84.6975 10.055 85.3475 9.755C85.9975 9.445 86.7375 9.29 87.5675 9.29C88.5375 9.29 89.3825 9.505 90.1025 9.935C90.8225 10.365 91.3575 10.925 91.7075 11.615L90.1175 12.71C89.9375 12.31 89.7025 11.995 89.4125 11.765C89.1225 11.535 88.8075 11.37 88.4675 11.27C88.1375 11.17 87.8175 11.12 87.5075 11.12C86.9875 11.12 86.5325 11.225 86.1425 11.435C85.7625 11.645 85.4425 11.92 85.1825 12.26C84.9225 12.6 84.7275 12.98 84.5975 13.4C84.4775 13.82 84.4175 14.24 84.4175 14.66C84.4175 15.29 84.5475 15.88 84.8075 16.43C85.0675 16.97 85.4325 17.41 85.9025 17.75C86.3725 18.09 86.9175 18.26 87.5375 18.26C87.8575 18.26 88.1875 18.205 88.5275 18.095C88.8775 17.985 89.1975 17.81 89.4875 17.57C89.7775 17.33 90.0025 17.02 90.1625 16.64L91.8575 17.615C91.6375 18.145 91.2925 18.595 90.8225 18.965C90.3525 19.325 89.8225 19.605 89.2325 19.805C88.6425 19.995 88.0575 20.09 87.4775 20.09C86.7175 20.09 86.0225 19.935 85.3925 19.625C84.7725 19.305 84.2325 18.885 83.7725 18.365C83.3125 17.835 82.9525 17.245 82.6925 16.595C82.4425 15.935 82.3175 15.27 82.3175 14.6ZM93.2157 21.53C93.5857 21.63 93.8857 21.68 94.1157 21.68C94.3857 21.68 94.6007 21.565 94.7607 21.335C94.9307 21.115 95.1207 20.67 95.3307 20L92.2257 12.14H94.3107L96.4257 17.945L98.2857 12.14H100.206L96.9057 21.56C96.7257 22.1 96.4007 22.545 95.9307 22.895C95.4707 23.255 94.9007 23.435 94.2207 23.435C93.8907 23.435 93.5557 23.38 93.2157 23.27V21.53ZM104.694 20.15C103.844 20.15 103.109 19.96 102.489 19.58C101.869 19.2 101.389 18.7 101.049 18.08C100.709 17.46 100.539 16.79 100.539 16.07C100.539 15.34 100.704 14.665 101.034 14.045C101.374 13.425 101.854 12.93 102.474 12.56C103.094 12.19 103.829 12.005 104.679 12.005C105.539 12.005 106.269 12.19 106.869 12.56C107.479 12.93 107.934 13.415 108.234 14.015L106.269 14.615C105.919 14.015 105.384 13.715 104.664 13.715C104.274 13.715 103.924 13.815 103.614 14.015C103.304 14.205 103.059 14.48 102.879 14.84C102.699 15.19 102.609 15.6 102.609 16.07C102.609 16.53 102.699 16.94 102.879 17.3C103.069 17.65 103.319 17.93 103.629 18.14C103.939 18.34 104.284 18.44 104.664 18.44C105.024 18.44 105.354 18.355 105.654 18.185C105.964 18.005 106.179 17.78 106.299 17.51L108.264 18.11C107.994 18.7 107.544 19.19 106.914 19.58C106.294 19.96 105.554 20.15 104.694 20.15ZM109.486 9.05H111.496V17.48C111.496 17.85 111.556 18.095 111.676 18.215C111.796 18.335 111.961 18.395 112.171 18.395C112.331 18.395 112.496 18.375 112.666 18.335C112.836 18.295 112.986 18.245 113.116 18.185L113.386 19.715C113.116 19.845 112.801 19.945 112.441 20.015C112.081 20.085 111.756 20.12 111.466 20.12C110.836 20.12 110.346 19.955 109.996 19.625C109.656 19.285 109.486 18.805 109.486 18.185V9.05ZM117.907 20.15C117.057 20.15 116.322 19.965 115.702 19.595C115.092 19.225 114.617 18.735 114.277 18.125C113.937 17.505 113.767 16.835 113.767 16.115C113.767 15.375 113.932 14.695 114.262 14.075C114.602 13.445 115.082 12.945 115.702 12.575C116.322 12.195 117.062 12.005 117.922 12.005C118.782 12.005 119.517 12.195 120.127 12.575C120.737 12.945 121.202 13.44 121.522 14.06C121.852 14.67 122.017 15.33 122.017 16.04C122.017 16.3 122.002 16.525 121.972 16.715H115.897C115.947 17.325 116.172 17.805 116.572 18.155C116.982 18.505 117.452 18.68 117.982 18.68C118.382 18.68 118.757 18.585 119.107 18.395C119.467 18.195 119.712 17.935 119.842 17.615L121.567 18.095C121.277 18.695 120.812 19.19 120.172 19.58C119.532 19.96 118.777 20.15 117.907 20.15ZM115.852 15.44H119.962C119.902 14.85 119.677 14.375 119.287 14.015C118.907 13.645 118.442 13.46 117.892 13.46C117.352 13.46 116.887 13.645 116.497 14.015C116.117 14.375 115.902 14.85 115.852 15.44Z" fill="#0ABF5B"/>
<defs>
<clipPath id="clip0">
<rect width="30" height="30" fill="white"/>
</clipPath>
</defs>
</svg>
